<?xml version="1.0" encoding="utf-8"?>
<svg id="master-artboard" viewBox="0 0 1693.327880859375 1029.8487548828125" version="1.1" xmlns="http://www.w3.org/2000/svg" x="0px" y="0px" style="enable-background:new 0 0 1400 980;" width="1693.327880859375px" height="1029.8487548828125px">

<path d="M 815.199997 598.5 A 121.699997 121.699997 0 0 1 693.5 720.199997 A 121.699997 121.699997 0 0 1 571.800003 598.5 A 121.699997 121.699997 0 0 1 693.5 476.800003 A 121.699997 121.699997 0 0 1 815.199997 598.5 Z" class="st19" style="fill: none;" transform="matrix(1, 0, 0, 1, 256.9759216308594, -25.403244018554688)"/>
<path d="M 297.7426452636719 205.64334106445312" style="fill-opacity: 1; stroke: rgb(234, 234, 234); stroke-opacity: 1; stroke-width: 7; paint-order: fill;" transform="matrix(1, 0, 0, 1, 46.975921630859375, -25.403244018554688)"/><path d="M 123.90518951416016 370.2708740234375" style="fill: rgb(205, 114, 206); fill-opacity: 1; stroke: rgb(0, 0, 0); stroke-opacity: 1; stroke-width: 0; paint-order: fill;" transform="matrix(1, 0, 0, 1, 46.975921630859375, -25.403244018554688)"/><rect id="ee-background" x="0" y="0" width="1693.327880859375" height="1029.8487548828125" style="fill: rgb(77, 77, 77); fill-opacity: 1; pointer-events: none;" transform="matrix(1, 0, 0, 1, 0, 0)"/><path d="M 878.799999 578.700012 A 20.299999 20.299999 0 0 1 858.5 599.000011 A 20.299999 20.299999 0 0 1 838.200001 578.700012 A 20.299999 20.299999 0 0 1 858.5 558.400013 A 20.299999 20.299999 0 0 1 878.799999 578.700012 Z" class="st5" style="fill: rgb(237, 79, 79);" transform="matrix(0.9999999999999999, 0, 0, 0.9999999999999999, 777.0228394107767, -125.69846539744819)"/><path class="st6" d="M446.3,827.6l0.8,0.8c1.1,1.1,3,1.1,4.2,0L610.7,669c1.1-1.1,1.1-3,0-4.2l-0.8-0.8c-1.1-1.1-3-1.1-4.2,0&#10;&#9;&#9;&#9;&#9;L446.3,823.4C445.2,824.5,445.2,826.4,446.3,827.6z" style="fill: rgb(232, 232, 232); fill-opacity: 1;" transform="matrix(-0.16729271411895755, 0.7728469967842102, -0.7728469967842102, -0.16729271411895755, 2156.305419921875, 604.6893310546876)"/><path d="M 850.799999 719.200012 A 20.299999 20.299999 0 0 1 830.5 739.500011 A 20.299999 20.299999 0 0 1 810.200001 719.200012 A 20.299999 20.299999 0 0 1 830.5 698.900013 A 20.299999 20.299999 0 0 1 850.799999 719.200012 Z" transform="matrix(0.7071002125740051, -0.7071002125740051, 0.7071002125740051, 0.7071002125740051, 443.00531005859364, 1035.3310546875)" class="st3" style="fill: rgb(125, 198, 226);"/><path class="st6" d="M446.3,827.6l0.8,0.8c1.1,1.1,3,1.1,4.2,0L610.7,669c1.1-1.1,1.1-3,0-4.2l-0.8-0.8c-1.1-1.1-3-1.1-4.2,0&#10;&#9;&#9;&#9;&#9;L446.3,823.4C445.2,824.5,445.2,826.4,446.3,827.6z" style="fill: rgb(232, 232, 232); fill-opacity: 1;" transform="matrix(0.7184276580810547, 0.33038151264190674, -0.33038151264190674, 0.7184276580810547, 1163.8988037109375, 21.739431381225614)"/><path d="M 713.799999 421.899994 A 20.299999 20.299999 0 0 1 693.5 442.199993 A 20.299999 20.299999 0 0 1 673.200001 421.899994 A 20.299999 20.299999 0 0 1 693.5 401.599995 A 20.299999 20.299999 0 0 1 713.799999 421.899994 Z" class="st4" style="fill: rgb(247, 148, 30);" transform="matrix(1, 0, 0, 1, 679.5289916992188, 283.8160400390625)"/><path class="st6" d="M446.3,827.6l0.8,0.8c1.1,1.1,3,1.1,4.2,0L610.7,669c1.1-1.1,1.1-3,0-4.2l-0.8-0.8c-1.1-1.1-3-1.1-4.2,0&#10;&#9;&#9;&#9;&#9;L446.3,823.4C445.2,824.5,445.2,826.4,446.3,827.6z" style="fill: rgb(232, 232, 232); fill-opacity: 1;" transform="matrix(0.7184276580810547, 0.33038151264190674, -0.33038151264190674, 0.7184276580810547, 1411.1201171875, 107.02830505371091)"/><path d="M 575.799999 719.200012 A 20.299999 20.299999 0 0 1 555.5 739.500011 A 20.299999 20.299999 0 0 1 535.200001 719.200012 A 20.299999 20.299999 0 0 1 555.5 698.900013 A 20.299999 20.299999 0 0 1 575.799999 719.200012 Z" transform="matrix(0.7071002125740051, -0.7071002125740051, 0.7071002125740051, 0.7071002125740051, 715.0590820312499, 674.7980957031249)" class="st5" style="fill: rgb(237, 79, 79);"/><path d="M 333.100006 579.400024 L 143.600006 672.599976" class="st1" style="fill: none; stroke: rgb(232, 232, 232); stroke-width: 7; stroke-miterlimit: 10;" transform="matrix(0.5216241478919983, 0.2848894298076629, -0.30941763520240784, 0.5665349364280701, 356.6756896972656, 326.4955749511719)"/><path d="M 547.899975 578.700012 A 20.299999 20.299999 0 0 1 527.599976 599.000011 A 20.299999 20.299999 0 0 1 507.299976 578.700012 A 20.299999 20.299999 0 0 1 527.599976 558.400013 A 20.299999 20.299999 0 0 1 547.899975 578.700012 Z" class="st7" style="fill: rgb(255, 194, 79);" transform="matrix(1, 0, 0, 1, -314.01312255859375, 170.48228454589844)"/><path d="M 1053.400024 583.5 L 1253.300049 515.299988" class="st1" style="fill: none; stroke: rgb(232, 232, 232); stroke-width: 7; stroke-miterlimit: 10;" transform="matrix(0.8145827651023863, 0.8888347744941713, -0.631696045398712, 0.5789250135421753, 748.4768799381203, -893.6842289472528)"/><path d="M 1287.499977 510.5 A 46.900002 46.900002 0 0 1 1240.599976 557.400002 A 46.900002 46.900002 0 0 1 1193.699974 510.5 A 46.900002 46.900002 0 0 1 1240.599976 463.599998 A 46.900002 46.900002 0 0 1 1287.499977 510.5 Z" class="st3" style="fill: rgb(125, 198, 226);" transform="matrix(0.9999999999999999, 0, 0, 0.9999999999999999, 236.4906891422218, 18.524326274304727)"/><path d="M 936.299988 817.200012 L 1124.199951 888.599976" class="st1" style="fill: none; stroke: rgb(232, 232, 232); stroke-width: 7; stroke-miterlimit: 10;" transform="matrix(1.2410547733306885, -0.17087292671203616, 0.17087292671203616, 1.2410547733306885, -103.185791015625, -67.88776397705078)"/><path d="M 1170.099953 887.200012 A 46.900002 46.900002 0 0 1 1123.199951 934.100014 A 46.900002 46.900002 0 0 1 1076.29995 887.200012 A 46.900002 46.900002 0 0 1 1123.199951 840.300011 A 46.900002 46.900002 0 0 1 1170.099953 887.200012 Z" class="st4" style="fill: rgb(247, 148, 30);" transform="matrix(1, 0, 0, 1, 340.58001708984375, -46.65851974487305)"/><path class="st6" d="M939.8,827.6l-0.8,0.8c-1.1,1.1-3,1.1-4.2,0L775.3,669c-1.1-1.1-1.1-3,0-4.2l0.8-0.8c1.1-1.1,3-1.1,4.2,0&#10;&#9;&#9;&#9;&#9;l159.4,159.4C940.9,824.5,940.9,826.4,939.8,827.6z" style="fill: rgb(232, 232, 232); stroke: rgb(232, 232, 232);" transform="matrix(2.3043350266689435, 0, 0, 1.1839740247410941, -969.8984230389881, -177.95910761933777)"/><path class="st5" d="M855.5,809.4c0,24.3,10.8,46,27.8,60.7c14,12.1,32.2,19.4,52.2,19.4s38.2-7.3,52.2-19.4&#10;&#9;&#9;&#9;c17-14.7,27.8-36.4,27.8-60.7c0-44.2-35.8-80-80-80C891.4,729.4,855.5,765.2,855.5,809.4z" style="fill: rgb(237, 79, 79);" transform="matrix(1, 0, 0, 1, 256.9759216308594, -25.403244018554688)"/><path d="M 1218.300049 128.5 L 1148.300049 302.399994 L 1296.199951 334" class="st1" style="fill: none; stroke: rgb(232, 232, 232); stroke-width: 7; stroke-miterlimit: 10;" transform="matrix(0.9999999999999999, 0, 0, 0.9999999999999999, 253.49491582679212, 2.937124202161172)"/><path d="M 171.699997 128.5 L 241.699997 302.399994 L 93.800003 334" class="st1" style="fill: none; stroke: rgb(234, 234, 234); stroke-width: 7; stroke-miterlimit: 10;" transform="matrix(1, 0, 0, 1, 46.975921630859375, -25.403244018554688)"/><path d="M 453.5 817.200012 L 265.600006 888.599976" class="st1" style="fill: rgb(232, 232, 232); stroke: rgb(232, 232, 232); stroke-width: 7; stroke-miterlimit: 10;" transform="matrix(0.9818599224090577, -0.18962024152278903, 0.18962024152278903, 0.9818599224090577, -232.92573263768895, 52.58060643047642)"/><path d="M 195.699997 294.899994 L 462 340 L 415.5 139.899994" class="st1" style="fill: none; stroke: rgb(232, 232, 232); stroke-width: 7; stroke-miterlimit: 10;" transform="matrix(1, 0, 0, 1, 46.975921630859375, -25.403244018554688)"/><path class="st6" d="M466.9,351.3l-0.8,0.8c-1.1,1.1-1.1,3,0,4.2l159.4,159.4c1.1,1.1,3,1.1,4.2,0l0.8-0.8c1.1-1.1,1.1-3,0-4.2&#10;&#9;&#9;&#9;&#9;L471.1,351.3C469.9,350.1,468,350.1,466.9,351.3z" style="fill: rgb(232, 232, 232);" transform="matrix(1.864244802003358, 0, 0, 1.392321286069516, -366.4129716287506, -167.133112779783)"/><path d="M 595.500011 460.5 A 20.299999 20.299999 0 0 1 575.200012 480.799999 A 20.299999 20.299999 0 0 1 554.900013 460.5 A 20.299999 20.299999 0 0 1 575.200012 440.200001 A 20.299999 20.299999 0 0 1 595.500011 460.5 Z" transform="matrix(0.7071002125740051, -0.7071002125740051, 0.7071002125740051, 0.7071002125740051, -309.05710284322026, 520.4597324124563)" class="st3" style="fill: rgb(125, 198, 226);"/><path class="st2" d="M542.6,341.8c0,24.3-10.8,46-27.8,60.7c-14,12.1-32.2,19.4-52.2,19.4c-19.9,0-38.2-7.3-52.2-19.4&#10;&#9;&#9;&#9;c-17-14.7-27.8-36.4-27.8-60.7c0-44.2,35.8-80,80-80C506.7,261.8,542.6,297.6,542.6,341.8z" style="fill: rgb(205, 114, 206);" transform="matrix(1, 0, 0, 1, 26.97592163085938, -35.403244018554695)"/><path class="st6" d="M446.3,827.6l0.8,0.8c1.1,1.1,3,1.1,4.2,0L610.7,669c1.1-1.1,1.1-3,0-4.2l-0.8-0.8c-1.1-1.1-3-1.1-4.2,0&#10;&#9;&#9;&#9;&#9;L446.3,823.4C445.2,824.5,445.2,826.4,446.3,827.6z" style="fill: rgb(232, 232, 232);" transform="matrix(1.5588308084958653, 0.6370499282665608, -0.6370499282665608, 1.5588308084958653, 273.65647756084394, -841.5345022863434)"/><path class="st7" d="M530.5,809.4c0,24.3-10.8,46-27.8,60.7c-14,12.1-32.2,19.4-52.2,19.4c-19.9,0-38.2-7.3-52.2-19.4&#10;&#9;&#9;&#9;&#9;c-17-14.7-27.8-36.4-27.8-60.7c0-44.2,35.8-80,80-80C494.7,729.4,530.5,765.2,530.5,809.4z" style="fill: rgb(255, 194, 79);" transform="matrix(0.9999999999999999, 0, 0, 0.9999999999999999, -47.964311908538775, -67.9137963496285)"/><path d="M 288.599998 302.399994 A 46.900002 46.900002 0 0 1 241.699997 349.299995 A 46.900002 46.900002 0 0 1 194.799995 302.399994 A 46.900002 46.900002 0 0 1 241.699997 255.499992 A 46.900002 46.900002 0 0 1 288.599998 302.399994 Z" class="st5" style="fill: rgb(237, 79, 79);" transform="matrix(1, 0, 0, 1, 46.975921630859375, -25.403244018554688)"/><path d="M 205.199997 131.399994 A 40 40 0 0 1 165.199997 171.399994 A 40 40 0 0 1 125.199997 131.399994 A 40 40 0 0 1 165.199997 91.399994 A 40 40 0 0 1 205.199997 131.399994 Z" class="st2" style="fill: rgb(205, 114, 206);" transform="matrix(1, 0, 0, 1, 46.975921630859375, -25.403244018554688)"/><path d="M 130.199997 338.399994 A 40 40 0 0 1 90.199997 378.399994 A 40 40 0 0 1 50.199997 338.399994 A 40 40 0 0 1 90.199997 298.399994 A 40 40 0 0 1 130.199997 338.399994 Z" class="st2" style="fill: rgb(205, 114, 206);" transform="matrix(1, 0, 0, 1, 46.975921630859375, -25.403244018554688)"/><path d="M 313.500008 887.200012 A 46.900002 46.900002 0 0 1 266.600006 934.100014 A 46.900002 46.900002 0 0 1 219.700005 887.200012 A 46.900002 46.900002 0 0 1 266.600006 840.300011 A 46.900002 46.900002 0 0 1 313.500008 887.200012 Z" class="st3" style="fill: rgb(125, 198, 226);" transform="matrix(0.9999999999999999, 0, 0, 0.9999999999999999, -93.3089010616842, -2.7309494419820055)"/><path d="M 466.699989 141.800003 A 46.900002 46.900002 0 0 1 419.799988 188.700005 A 46.900002 46.900002 0 0 1 372.899986 141.800003 A 46.900002 46.900002 0 0 1 419.799988 94.900002 A 46.900002 46.900002 0 0 1 466.699989 141.800003 Z" class="st3" style="fill: rgb(125, 198, 226);" transform="matrix(1, 0, 0, 1, 46.975921630859375, -25.403244018554688)"/><path d="M 1339.800049 338.399994 A 40 40 0 0 1 1299.800049 378.399994 A 40 40 0 0 1 1259.800049 338.399994 A 40 40 0 0 1 1299.800049 298.399994 A 40 40 0 0 1 1339.800049 338.399994 Z" class="st3" style="fill: rgb(125, 198, 226);" transform="matrix(0.9999999999999999, 0, 0, 0.9999999999999999, 253.49491582679212, 2.937124202161172)"/><path d="M 1264.800049 131.399994 A 40 40 0 0 1 1224.800049 171.399994 A 40 40 0 0 1 1184.800049 131.399994 A 40 40 0 0 1 1224.800049 91.399994 A 40 40 0 0 1 1264.800049 131.399994 Z" class="st2" style="fill: rgb(205, 114, 206);" transform="matrix(0.9999999999999999, 0, 0, 0.9999999999999999, 253.49491582679212, 2.937124202161172)"/><path d="M 1194.099976 294.899994 L 927.799988 340 L 974.299988 139.899994" class="st1" style="fill: none; stroke: rgb(232, 232, 232); stroke-width: 7; stroke-miterlimit: 10;" transform="matrix(0.9999999999999999, 0, 0, 0.9999999999999999, 253.49491582679212, 2.937124202161172)"/><path d="M 1016.999977 141.800003 A 46.900002 46.900002 0 0 1 970.099976 188.700005 A 46.900002 46.900002 0 0 1 923.199974 141.800003 A 46.900002 46.900002 0 0 1 970.099976 94.900002 A 46.900002 46.900002 0 0 1 1016.999977 141.800003 Z" class="st3" style="fill: rgb(125, 198, 226);" transform="matrix(0.7431843876838684, 0, 0, 0.7431843876838684, 510.42536626624536, 30.14296562424218)"/><path d="M 1194.999977 302.399994 A 46.900002 46.900002 0 0 1 1148.099976 349.299995 A 46.900002 46.900002 0 0 1 1101.199974 302.399994 A 46.900002 46.900002 0 0 1 1148.099976 255.499992 A 46.900002 46.900002 0 0 1 1194.999977 302.399994 Z" class="st4" style="fill: rgb(247, 148, 30);" transform="matrix(0.9999999999999999, 0, 0, 0.9999999999999999, 253.49491582679212, 2.937124202161172)"/><path d="M 423.5267639160156 443.3650207519531 L 494.377685546875 297.412109375" style="fill: rgb(125, 198, 226); fill-opacity: 1; stroke: rgb(0, 0, 0); stroke-opacity: 1; stroke-width: 0; paint-order: fill;"/><path class="st6" d="M919.2,351.3l0.8,0.8c1.1,1.1,1.1,3,0,4.2L760.6,515.7c-1.1,1.1-3,1.1-4.2,0l-0.8-0.8c-1.1-1.1-1.1-3,0-4.2&#10;&#9;&#9;&#9;&#9;L915,351.3C916.2,350.1,918,350.1,919.2,351.3z" style="fill: rgb(232, 232, 232); stroke: rgb(232, 232, 232);" transform="matrix(1.7054607497457837, 0, 0, 0.8634816158775452, -438.0530288859899, 98.92857419354193)"/><path class="st7" d="M843.5,341.8c0,24.3,10.8,46,27.8,60.7c14,12.1,32.2,19.4,52.2,19.4c19.9,0,38.2-7.3,52.2-19.4&#10;&#9;&#9;&#9;c17-14.7,27.8-36.4,27.8-60.7c0-44.2-35.8-80-80-80C879.3,261.8,843.5,297.6,843.5,341.8z" style="fill: rgb(255, 194, 79);" transform="matrix(0.9999999999999999, 0, 0, 0.9999999999999999, 253.49491582679212, 2.937124202161172)"/></svg>